<!-- filepath: public/bondify.svg -->
<svg width="96" height="96" viewBox="0 0 96 96" fill="none" xmlns="http://www.w3.org/2000/svg">
  <defs>
    <!-- Main gradient for chat bubble -->
    <linearGradient id="bondify-gradient" x1="0" y1="0" x2="96" y2="96" gradientUnits="userSpaceOnUse">
      <stop stop-color="#7C3AED"/>
      <stop offset="0.5" stop-color="#38BDF8"/>
      <stop offset="1" stop-color="#06D6A0"/>
    </linearGradient>
    <!-- Glow for the chat bubble -->
    <radialGradient id="bubble-glow" cx="48" cy="42" r="40" gradientUnits="userSpaceOnUse">
      <stop offset="0.2" stop-color="#fff" stop-opacity="0.25"/>
      <stop offset="1" stop-color="#38BDF8" stop-opacity="0"/>
    </radialGradient>
    <!-- Gradient for the sparkle -->
    <linearGradient id="sparkle-gradient" x1="76" y1="25" x2="76" y2="31" gradientUnits="userSpaceOnUse">
      <stop stop-color="#fff" stop-opacity="0.9"/>
      <stop offset="1" stop-color="#38BDF8" stop-opacity="0.6"/>
    </linearGradient>
  </defs>
  <!-- Bubble glow -->
  <ellipse cx="48" cy="42" rx="38" ry="20" fill="url(#bubble-glow)" />
  <!-- Chat bubble -->
  <rect x="12" y="18" width="72" height="48" rx="18" fill="url(#bondify-gradient)" filter="url(#shadow)" />
  <polygon points="36,66 48,84 60,66" fill="url(#bondify-gradient)" />
  <!-- Bond/connection (two dots and a line) -->
  <circle cx="32" cy="42" r="7" fill="#fff" opacity="0.95"/>
  <circle cx="64" cy="42" r="7" fill="#fff" opacity="0.95"/>
  <rect x="39" y="40" width="18" height="4" rx="2" fill="#fff" opacity="0.92"/>
  <!-- Sparkle for AI effect (star) -->
  <g>
    <circle cx="76" cy="28" r="4" fill="url(#sparkle-gradient)" />
    <g opacity="0.7">
      <rect x="75.2" y="22" width="1.6" height="12" rx="0.8" fill="#fff" transform="rotate(20 76 28)"/>
      <rect x="70" y="27.2" width="12" height="1.6" rx="0.8" fill="#fff" transform="rotate(20 76 28)"/>
    </g>
  </g>
  <!-- Extra sparkles for more AI effect -->
  <circle cx="22" cy="28" r="2" fill="#fff" opacity="0.5"/>
  <circle cx="80" cy="54" r="1.5" fill="#fff" opacity="0.4"/>
  <circle cx="60" cy="20" r="1.8" fill="#fff" opacity="0.4"/>
  <!-- Subtle shadow for depth -->
  <filter id="shadow" x="0" y="0" width="120" height="120">
    <feDropShadow dx="0" dy="4" stdDeviation="4" flood-color="#7C3AED" flood-opacity="0.18"/>
  </filter>
</svg>